<?xml version="1.0" encoding="UTF-8"?>
<svg width="24px" height="24px" viewBox="0 0 24 24" version="1.1" xmlns="http://www.w3.org/2000/svg" xmlns:xlink="http://www.w3.org/1999/xlink">
    <title>Frame</title>
    <defs>
        <path d="M20.5530714,13.0602107 C20.966164,13.2416227 21.2810624,13.4762071 21.4977667,13.7639641 C21.714471,14.051721 21.8566832,14.3707558 21.9244032,14.7210686 C21.9921233,15.0713814 22.0259834,15.4216942 22.0259834,15.772007 C22.0259834,16.5226772 22.0090534,17.2451973 21.9751933,17.9395673 C21.9413333,18.6339373 21.9244032,19.3001571 21.9244032,19.9382268 C21.9244032,20.2134726 21.9311752,20.4511848 21.9447193,20.6513635 C21.9582633,20.8515423 21.9718073,21.0642322 21.9853513,21.2894332 L23.3871572,21.4771008 L23.3871572,21.8712027 C23.0485567,22.0338479 22.6727102,22.1777264 22.2596177,22.3028381 C21.8465251,22.4279498 21.4503626,22.5217835 21.0711301,22.5843394 L20.5632294,22.5843394 C20.4277892,22.2965825 20.3465251,21.9806754 20.3194371,21.6366182 C20.2923491,21.292561 20.272033,20.9140981 20.258489,20.5012295 L20.1569089,20.5012295 C20.1027328,20.7514529 19.9977667,21.0048041 19.8420105,21.2612831 C19.6862543,21.5177621 19.483094,21.746091 19.2325297,21.9462697 C18.9819653,22.1464484 18.6873829,22.3090936 18.3487825,22.4342053 C18.010182,22.5593171 17.6241775,22.6218729 17.1907689,22.6218729 C16.3645838,22.6218729 15.6907689,22.3904163 15.1693242,21.9275029 C14.6478795,21.4645896 14.3871572,20.8577978 14.3871572,20.1071276 C14.3871572,19.5316137 14.5124394,19.0593171 14.7630037,18.6902375 C15.013568,18.321158 15.3826425,18.0302733 15.8702272,17.8175834 C16.3578118,17.6048935 16.9605206,17.4516316 17.6783536,17.3577978 C18.3961865,17.2639641 19.2291436,17.1920248 20.1772249,17.1419801 C20.231401,16.6039998 20.248331,16.1191919 20.228015,15.6875566 C20.207699,15.2559212 20.1332069,14.8868416 20.0045387,14.5803179 C19.8758705,14.2737943 19.6862543,14.036082 19.4356899,13.8671812 C19.1851256,13.6982804 18.8566832,13.61383 18.4503626,13.61383 C18.2607464,13.61383 18.0474281,13.6232134 17.8104078,13.6419801 C17.5733874,13.6607469 17.3397531,13.7139194 17.1095048,13.8014976 L16.1546515,16.0535083 L15.6264348,16.0535083 C15.4909947,15.6781732 15.3724845,15.2903269 15.2709044,14.8899694 C15.1693242,14.489612 15.1049901,14.0955101 15.0779021,13.7076638 C15.5925748,13.4199069 16.1648096,13.1947058 16.7946064,13.0320606 C17.4244032,12.8694154 18.1253062,12.7880927 18.8973152,12.7880927 C19.5880601,12.7880927 20.1399789,12.8787987 20.5530714,13.0602107 Z M18.2675184,17.9677174 C17.7663897,18.0427844 17.3736132,18.1616406 17.0891888,18.3242858 C16.8047644,18.486931 16.6083762,18.6902375 16.500024,18.9342053 C16.3916719,19.1781732 16.3374958,19.4565467 16.3374958,19.769326 C16.3374958,20.3073063 16.48648,20.7233028 16.7844484,21.0173153 C17.0824168,21.3113278 17.4887373,21.458334 18.00341,21.458334 C18.3420105,21.458334 18.6399789,21.3957782 18.8973152,21.2706665 C19.1546515,21.1455548 19.3713558,20.9954207 19.5474281,20.8202643 C19.7235003,20.6451079 19.8657125,20.4668238 19.9740646,20.2854118 C20.0824168,20.1039998 20.1569089,19.950738 20.1975409,19.8256263 L20.1975409,17.8551169 C19.4119879,17.8551169 18.768647,17.8926504 18.2675184,17.9677174 Z M6.01744895,0.861942384 C6.49983377,1.10042794 6.74102618,1.37696971 6.74102618,1.69156768 C6.74102618,1.85394082 6.67869556,2.03407353 6.55403431,2.2319658 C6.42937307,2.42985807 6.28574163,2.82310554 6.12314001,3.41170819 C7.23967117,3.23918672 8.09874976,3.01338657 8.70037578,2.73430772 C9.30200179,2.45522888 9.722056,2.31568946 9.96053838,2.31568946 C10.1990208,2.31568946 10.3968527,2.37404231 10.5540343,2.490748 C10.7112159,2.6074537 10.7898067,2.711474 10.7898067,2.80280889 C10.7898067,2.96518204 10.5865546,3.11740686 10.1800506,3.25948337 C9.77354651,3.40155987 9.15566033,3.5664701 8.32639204,3.75421405 C7.49712375,3.941958 6.71392591,4.08149742 5.97679854,4.17283231 C5.87923757,4.61935847 5.80335681,5.21303528 5.74915627,5.95386276 C6.21528093,5.88282451 6.62720505,5.84730538 6.98492862,5.84730538 C7.3426522,5.84730538 7.62449502,5.85237954 7.83045708,5.86252786 C7.77625654,5.78134129 7.70850586,5.68746932 7.62720505,5.58091194 C7.54590423,5.47435456 7.50525383,5.38048259 7.50525383,5.29929601 C7.50525383,5.21810944 7.52964407,5.15214535 7.57842456,5.10140374 C7.62720505,5.05066213 7.70037578,5.02529133 7.79793675,5.02529133 C7.89549773,5.02529133 8.09332971,5.12931163 8.39143269,5.33735222 C8.68953567,5.54539281 8.87652754,5.76104465 8.9524083,5.98430772 C10.0580994,6.19742248 10.925308,6.61857783 11.5540343,7.24777377 C12.1827606,7.87696971 12.4971237,8.5772039 12.4971237,9.34847634 C12.4971237,10.1197488 12.2505113,10.819983 11.7572863,11.4491789 C11.2640614,12.0783749 10.4781536,12.5781797 9.39956277,12.9485934 C8.32097198,13.3190072 7.51067388,13.504214 6.96866846,13.504214 C6.58926467,13.504214 6.39956277,13.4103421 6.39956277,13.2225981 C6.39956277,13.0348542 6.52422402,12.9257597 6.77354651,12.8953147 C7.90091778,12.7633866 8.94427822,12.3929728 9.90362781,11.7840735 C10.8629774,11.1751742 11.3426522,10.3886793 11.3426522,9.42458875 C11.3426522,8.84613442 11.1583704,8.30319921 10.7898067,7.79578313 C10.421243,7.28836705 9.77625654,6.92302747 8.85484732,6.6997644 C8.4429232,7.62326167 7.53777415,8.90195019 6.13940017,10.53583 C6.21528093,10.7184998 6.29658174,10.8707246 6.38330261,10.9925044 C6.47002347,11.1142843 6.51338391,11.2157675 6.51338391,11.2969541 C6.51338391,11.3781407 6.45647334,11.4644014 6.3426522,11.5557363 C6.22883106,11.6470712 6.12314001,11.6927386 6.02557903,11.6927386 C5.83045708,11.6927386 5.65159529,11.5506621 5.48899366,11.2665091 C4.93614814,11.8246668 4.35620234,12.2483592 3.74915627,12.5375864 C3.1421102,12.8268136 2.60552483,12.9714272 2.13940017,12.9714272 C1.67327551,12.9714272 1.2830316,12.7938315 0.968668461,12.4386403 C0.654305318,12.083449 0.497123746,11.6014037 0.497123746,10.9925044 C0.497123746,10.0487105 0.881947594,9.11760202 1.65159529,8.19917892 C2.42124299,7.28075581 3.49983377,6.60335534 4.88736765,6.16697751 C4.9524083,5.48703996 5.03370911,4.85784402 5.13127009,4.27938969 C3.74373621,4.43161452 2.90904787,4.50772693 2.62720505,4.50772693 C1.922598,4.50772693 1.45376331,4.35042794 1.22070098,4.03582997 C0.987638651,3.721232 0.871107486,3.48274644 0.871107486,3.3203733 C0.871107486,3.23918672 0.922598001,3.19859344 1.02557903,3.19859344 C1.12856006,3.19859344 1.30471182,3.28231709 1.55403431,3.4497644 C1.80335681,3.6172117 2.25322131,3.70093536 2.90362781,3.70093536 C3.21799095,3.70093536 3.53777415,3.68571288 3.8629774,3.65526791 L5.22883106,3.54871053 C5.34807226,2.84847634 5.42937307,2.42224683 5.4727335,2.27002201 C5.51609394,2.11779718 5.53777415,1.98079484 5.53777415,1.85901498 C5.53777415,1.73723512 5.48628364,1.6103811 5.38330261,1.47845292 C5.28032158,1.34652474 5.10958987,1.1841516 4.87110749,0.991333485 C4.79522673,0.930443555 4.75728635,0.859405304 4.75728635,0.778218731 C4.75728635,0.595548941 4.88736765,0.504214047 5.14753025,0.504214047 C5.24509123,0.504214047 5.53506413,0.623456826 6.01744895,0.861942384 Z M2.41582293,8.61779718 C1.84129719,9.35862466 1.55403431,10.1603421 1.55403431,11.0229494 C1.55403431,11.3172507 1.58384461,11.5176801 1.64346521,11.6242375 C1.70308581,11.7307948 1.80606684,11.8170556 1.9524083,11.8830197 C2.09874976,11.9489838 2.26406142,11.9819658 2.44834326,11.9819658 C2.78438662,11.9819658 3.20715085,11.8551118 3.71663594,11.6014037 C4.22612104,11.3476957 4.71392591,10.9925044 5.18005058,10.53583 C4.94156819,9.82544746 4.822327,8.91209851 4.822327,7.79578313 C4.822327,7.52177845 4.82774705,7.23255128 4.83858716,6.92810163 C3.79793675,7.31373786 2.99034868,7.87696971 2.41582293,8.61779718 Z M16.9165026,9.08165843 C17.0858028,9.2255369 17.272033,9.35377639 17.4751933,9.46637693 C17.6783536,9.57897747 17.8950579,9.66968345 18.1253062,9.73849489 C18.3555545,9.80730633 18.5722588,9.84171205 18.775419,9.84171205 C19.6964123,9.86673439 20.4345613,9.48514369 20.989866,8.69693993 L21.4774506,8.90337425 C21.3555545,9.17862001 21.2099563,9.45386576 21.0406561,9.72911152 C20.8713558,10.0043573 20.6715816,10.2483251 20.4413333,10.461015 C20.211085,10.6737049 19.9571346,10.8488613 19.6794822,10.9864842 C19.4018299,11.124107 19.0937035,11.1929185 18.755103,11.1929185 C18.3894145,11.1929185 18.0643581,11.1334904 17.7799337,11.0146343 C17.4955093,10.8957782 17.238173,10.733133 17.0079247,10.5266986 C16.7776764,10.3202643 16.5745161,10.0762965 16.3984439,9.79479516 C16.2223716,9.51329382 16.0733874,9.20364235 15.9514913,8.86584074 L16.52034,8.62187291 C16.6151482,8.78451813 16.7472023,8.93777997 16.9165026,9.08165843 Z M5.71663594,6.68454192 C5.70579583,6.91795331 5.70037578,7.14629055 5.70037578,7.36955363 C5.70037578,8.23216096 5.77083648,9.01358173 5.91175789,9.71381592 C6.25864136,9.29773473 6.65159529,8.74211412 7.09061968,8.04695409 C7.52964407,7.35179406 7.80335681,6.85198922 7.91175789,6.54753957 C7.70579583,6.52724293 7.41853296,6.51709461 7.04996927,6.51709461 C6.68140559,6.51709461 6.23696114,6.57291038 5.71663594,6.68454192 Z" id="path-1"></path>
    </defs>
    <g id="Frame" stroke="none" fill="none" xlink:href="#path-1" fill-rule="evenodd" stroke-width="1">
        <g id="Group" fill="#8B8B8B">
            <path d="M8.9524083,5.98430772 C10.0580994,6.19742248 10.925308,6.61857783 11.5540343,7.24777377 C12.1827606,7.87696971 12.4971237,8.5772039 12.4971237,9.34847634 C12.4971237,10.1197488 12.2505113,10.819983 11.7572863,11.4491789 C11.2640614,12.0783749 10.4781536,12.5781797 9.39956277,12.9485934 C8.32097198,13.3190072 7.51067388,13.504214 6.96866846,13.504214 C6.58926467,13.504214 6.39956277,13.4103421 6.39956277,13.2225981 C6.39956277,13.0348542 6.52422402,12.9257597 6.77354651,12.8953147 C7.90091778,12.7633866 8.94427822,12.3929728 9.90362781,11.7840735 C10.8629774,11.1751742 11.3426522,10.3886793 11.3426522,9.42458875 C11.3426522,8.84613442 11.1583704,8.30319921 10.7898067,7.79578313 C10.421243,7.28836705 9.77625654,6.92302747 8.85484732,6.6997644 C8.4429232,7.62326167 7.53777415,8.90195019 6.13940017,10.53583 C6.21528093,10.7184998 6.29658174,10.8707246 6.38330261,10.9925044 C6.47002347,11.1142843 6.51338391,11.2157675 6.51338391,11.2969541 C6.51338391,11.3781407 6.45647334,11.4644014 6.3426522,11.5557363 C6.22883106,11.6470712 6.12314001,11.6927386 6.02557903,11.6927386 C5.83045708,11.6927386 5.65159529,11.5506621 5.48899366,11.2665091 C4.93614814,11.8246668 4.35620234,12.2483592 3.74915627,12.5375864 C3.1421102,12.8268136 2.60552483,12.9714272 2.13940017,12.9714272 C1.67327551,12.9714272 1.2830316,12.7938315 0.968668461,12.4386403 C0.654305318,12.083449 0.497123746,11.6014037 0.497123746,10.9925044 C0.497123746,10.0487105 0.881947594,9.11760202 1.65159529,8.19917892 C2.42124299,7.28075581 3.49983377,6.60335534 4.88736765,6.16697751 C4.9524083,5.48703996 5.03370911,4.85784402 5.13127009,4.27938969 C3.74373621,4.43161452 2.90904787,4.50772693 2.62720505,4.50772693 C1.922598,4.50772693 1.45376331,4.35042794 1.22070098,4.03582997 C0.987638651,3.721232 0.871107486,3.48274644 0.871107486,3.3203733 C0.871107486,3.23918672 0.922598001,3.19859344 1.02557903,3.19859344 C1.12856006,3.19859344 1.30471182,3.28231709 1.55403431,3.4497644 C1.80335681,3.6172117 2.25322131,3.70093536 2.90362781,3.70093536 C3.21799095,3.70093536 3.53777415,3.68571288 3.8629774,3.65526791 L5.22883106,3.54871053 C5.34807226,2.84847634 5.42937307,2.42224683 5.4727335,2.27002201 C5.51609394,2.11779718 5.53777415,1.98079484 5.53777415,1.85901498 C5.53777415,1.73723512 5.48628364,1.6103811 5.38330261,1.47845292 C5.28032158,1.34652474 5.10958987,1.1841516 4.87110749,0.991333485 C4.79522673,0.930443555 4.75728635,0.859405304 4.75728635,0.778218731 C4.75728635,0.595548941 4.88736765,0.504214047 5.14753025,0.504214047 C5.24509123,0.504214047 5.53506413,0.623456826 6.01744895,0.861942384 C6.49983377,1.10042794 6.74102618,1.37696971 6.74102618,1.69156768 C6.74102618,1.85394082 6.67869556,2.03407353 6.55403431,2.2319658 C6.42937307,2.42985807 6.28574163,2.82310554 6.12314001,3.41170819 C7.23967117,3.23918672 8.09874976,3.01338657 8.70037578,2.73430772 C9.30200179,2.45522888 9.722056,2.31568946 9.96053838,2.31568946 C10.1990208,2.31568946 10.3968527,2.37404231 10.5540343,2.490748 C10.7112159,2.6074537 10.7898067,2.711474 10.7898067,2.80280889 C10.7898067,2.96518204 10.5865546,3.11740686 10.1800506,3.25948337 C9.77354651,3.40155987 9.15566033,3.5664701 8.32639204,3.75421405 C7.49712375,3.941958 6.71392591,4.08149742 5.97679854,4.17283231 C5.87923757,4.61935847 5.80335681,5.21303528 5.74915627,5.95386276 C6.21528093,5.88282451 6.62720505,5.84730538 6.98492862,5.84730538 C7.3426522,5.84730538 7.62449502,5.85237954 7.83045708,5.86252786 C7.77625654,5.78134129 7.70850586,5.68746932 7.62720505,5.58091194 C7.54590423,5.47435456 7.50525383,5.38048259 7.50525383,5.29929601 C7.50525383,5.21810944 7.52964407,5.15214535 7.57842456,5.10140374 C7.62720505,5.05066213 7.70037578,5.02529133 7.79793675,5.02529133 C7.89549773,5.02529133 8.09332971,5.12931163 8.39143269,5.33735222 C8.68953567,5.54539281 8.87652754,5.76104465 8.9524083,5.98430772 Z M7.91175789,6.54753957 C7.70579583,6.52724293 7.41853296,6.51709461 7.04996927,6.51709461 C6.68140559,6.51709461 6.23696114,6.57291038 5.71663594,6.68454192 C5.70579583,6.91795331 5.70037578,7.14629055 5.70037578,7.36955363 C5.70037578,8.23216096 5.77083648,9.01358173 5.91175789,9.71381592 C6.25864136,9.29773473 6.65159529,8.74211412 7.09061968,8.04695409 C7.52964407,7.35179406 7.80335681,6.85198922 7.91175789,6.54753957 Z M5.18005058,10.53583 C4.94156819,9.82544746 4.822327,8.91209851 4.822327,7.79578313 C4.822327,7.52177845 4.82774705,7.23255128 4.83858716,6.92810163 C3.79793675,7.31373786 2.99034868,7.87696971 2.41582293,8.61779718 C1.84129719,9.35862466 1.55403431,10.1603421 1.55403431,11.0229494 C1.55403431,11.3172507 1.58384461,11.5176801 1.64346521,11.6242375 C1.70308581,11.7307948 1.80606684,11.8170556 1.9524083,11.8830197 C2.09874976,11.9489838 2.26406142,11.9819658 2.44834326,11.9819658 C2.78438662,11.9819658 3.20715085,11.8551118 3.71663594,11.6014037 C4.22612104,11.3476957 4.71392591,10.9925044 5.18005058,10.53583 Z M21.9244032,19.9382268 C21.9244032,20.2134726 21.9311752,20.4511848 21.9447193,20.6513635 C21.9582633,20.8515423 21.9718073,21.0642322 21.9853513,21.2894332 L23.3871572,21.4771008 L23.3871572,21.8712027 C23.0485567,22.0338479 22.6727102,22.1777264 22.2596177,22.3028381 C21.8465251,22.4279498 21.4503626,22.5217835 21.0711301,22.5843394 L20.5632294,22.5843394 C20.4277892,22.2965825 20.3465251,21.9806754 20.3194371,21.6366182 C20.2923491,21.292561 20.272033,20.9140981 20.258489,20.5012295 L20.1569089,20.5012295 C20.1027328,20.7514529 19.9977667,21.0048041 19.8420105,21.2612831 C19.6862543,21.5177621 19.483094,21.746091 19.2325297,21.9462697 C18.9819653,22.1464484 18.6873829,22.3090936 18.3487825,22.4342053 C18.010182,22.5593171 17.6241775,22.6218729 17.1907689,22.6218729 C16.3645838,22.6218729 15.6907689,22.3904163 15.1693242,21.9275029 C14.6478795,21.4645896 14.3871572,20.8577978 14.3871572,20.1071276 C14.3871572,19.5316137 14.5124394,19.0593171 14.7630037,18.6902375 C15.013568,18.321158 15.3826425,18.0302733 15.8702272,17.8175834 C16.3578118,17.6048935 16.9605206,17.4516316 17.6783536,17.3577978 C18.3961865,17.2639641 19.2291436,17.1920248 20.1772249,17.1419801 C20.231401,16.6039998 20.248331,16.1191919 20.228015,15.6875566 C20.207699,15.2559212 20.1332069,14.8868416 20.0045387,14.5803179 C19.8758705,14.2737943 19.6862543,14.036082 19.4356899,13.8671812 C19.1851256,13.6982804 18.8566832,13.61383 18.4503626,13.61383 C18.2607464,13.61383 18.0474281,13.6232134 17.8104078,13.6419801 C17.5733874,13.6607469 17.3397531,13.7139194 17.1095048,13.8014976 L16.1546515,16.0535083 L15.6264348,16.0535083 C15.4909947,15.6781732 15.3724845,15.2903269 15.2709044,14.8899694 C15.1693242,14.489612 15.1049901,14.0955101 15.0779021,13.7076638 C15.5925748,13.4199069 16.1648096,13.1947058 16.7946064,13.0320606 C17.4244032,12.8694154 18.1253062,12.7880927 18.8973152,12.7880927 C19.5880601,12.7880927 20.1399789,12.8787987 20.5530714,13.0602107 C20.966164,13.2416227 21.2810624,13.4762071 21.4977667,13.7639641 C21.714471,14.051721 21.8566832,14.3707558 21.9244032,14.7210686 C21.9921233,15.0713814 22.0259834,15.4216942 22.0259834,15.772007 C22.0259834,16.5226772 22.0090534,17.2451973 21.9751933,17.9395673 C21.9413333,18.6339373 21.9244032,19.3001571 21.9244032,19.9382268 Z M18.00341,21.458334 C18.3420105,21.458334 18.6399789,21.3957782 18.8973152,21.2706665 C19.1546515,21.1455548 19.3713558,20.9954207 19.5474281,20.8202643 C19.7235003,20.6451079 19.8657125,20.4668238 19.9740646,20.2854118 C20.0824168,20.1039998 20.1569089,19.950738 20.1975409,19.8256263 L20.1975409,17.8551169 C19.4119879,17.8551169 18.768647,17.8926504 18.2675184,17.9677174 C17.7663897,18.0427844 17.3736132,18.1616406 17.0891888,18.3242858 C16.8047644,18.486931 16.6083762,18.6902375 16.500024,18.9342053 C16.3916719,19.1781732 16.3374958,19.4565467 16.3374958,19.769326 C16.3374958,20.3073063 16.48648,20.7233028 16.7844484,21.0173153 C17.0824168,21.3113278 17.4887373,21.458334 18.00341,21.458334 Z M21.4774506,8.90337425 C21.3555545,9.17862001 21.2099563,9.45386576 21.0406561,9.72911152 C20.8713558,10.0043573 20.6715816,10.2483251 20.4413333,10.461015 C20.211085,10.6737049 19.9571346,10.8488613 19.6794822,10.9864842 C19.4018299,11.124107 19.0937035,11.1929185 18.755103,11.1929185 C18.3894145,11.1929185 18.0643581,11.1334904 17.7799337,11.0146343 C17.4955093,10.8957782 17.238173,10.733133 17.0079247,10.5266986 C16.7776764,10.3202643 16.5745161,10.0762965 16.3984439,9.79479516 C16.2223716,9.51329382 16.0733874,9.20364235 15.9514913,8.86584074 L16.52034,8.62187291 C16.6151482,8.78451813 16.7472023,8.93777997 16.9165026,9.08165843 C17.0858028,9.2255369 17.272033,9.35377639 17.4751933,9.46637693 C17.6783536,9.57897747 17.8950579,9.66968345 18.1253062,9.73849489 C18.3555545,9.80730633 18.5722588,9.84171205 18.775419,9.84171205 C19.6964123,9.86673439 20.4345613,9.48514369 20.989866,8.69693993 L21.4774506,8.90337425 Z" id="Combined-Shape" fill-rule="nonzero"></path>
        </g>
    </g>
</svg>