<?xml version="1.0" encoding="UTF-8"?>
<svg width="128px" height="128px" viewBox="0 0 128 128" version="1.1" xmlns="http://www.w3.org/2000/svg" xmlns:xlink="http://www.w3.org/1999/xlink">
    <title>Xcode</title>
    <defs>
        <path d="M98.4,13.5 C98.5665468,13.6110312 98.7281624,13.7380886 98.8829305,13.879393 C99.6372336,14.2465296 100.212496,14.8350363 100.744032,15.5265544 C103.631819,16.7515033 106.202402,18.5774372 108.298256,20.8482112 C109.063013,20.8166038 109.814088,20.7083019 110.5,20.6 C110.736012,20.5636905 110.863257,20.596596 110.900286,20.70111 L116.195415,23.3978654 C116.598609,23.5993049 115.30892,26.6787146 113.419579,30.2628803 C113.864103,32.0007625 114.1,33.8226994 114.1,35.7 L114.1,92.2 C114.1,104.3 104.3,114.1 92.2,114.1 L58.847,114.1 L58.8,114.2 L50.8640947,114.20142 C49.8014499,116.296809 49.0683436,117.66104 48.8,118 C48.7443609,118.083459 48.686787,118.178526 48.6262017,118.277398 C47.771397,119.719567 46.7742348,120.5 44.5,120.5 C41.0629825,120.5 35.4513002,117.548669 34.0989268,114.041636 C22.7473117,113.223357 13.8,103.761618 13.8,92.2 L13.8,35.7 C13.8,23.6 23.6,13.8 35.7,13.8 L74.242606,13.8002458 C71.1325937,12.0920669 66.3977219,11.0614745 59.1030282,11.099984 L59.1100496,11.0890701 C60.2139477,9.89212107 62.5021247,8.60030353 63.2,8.7 L59.1,8.4 C59.1,8.4 59.2941157,8.23823691 59.6823471,8.08032839 C60.9373074,7.32791032 64.692869,5.5 71.6,5.5 C84.5,5.5 93.3,10.4 98.4,13.5 Z" id="path-1"></path>
        <linearGradient x1="49.997009%" y1="100.064806%" x2="49.997009%" y2="-0.0159521436%" id="linearGradient-2">
            <stop stop-color="#1578E4" offset="0%"></stop>
            <stop stop-color="#00C3F2" offset="100%"></stop>
        </linearGradient>
        <linearGradient x1="45.5937817%" y1="48.14%" x2="53.2405163%" y2="54.5347368%" id="linearGradient-3">
            <stop stop-color="#000000" offset="0.1%"></stop>
            <stop stop-color="#000000" stop-opacity="0" offset="100%"></stop>
        </linearGradient>
        <radialGradient cx="64.4820335%" cy="29.6598317%" fx="64.4820335%" fy="29.6598317%" r="42.3574792%" gradientTransform="translate(0.6448, 0.2966), scale(0.7194, 1), rotate(116.706), translate(-0.6448, -0.2966)" id="radialGradient-4">
            <stop stop-color="#000000" offset="0%"></stop>
            <stop stop-color="#000000" stop-opacity="0" offset="100%"></stop>
        </radialGradient>
        <radialGradient cx="48.3006342%" cy="48.5078314%" fx="48.3006342%" fy="48.5078314%" r="73.4044487%" gradientTransform="translate(0.483, 0.4851), scale(0.7006, 1), rotate(26.1166), translate(-0.483, -0.4851)" id="radialGradient-5">
            <stop stop-color="#0C0C12" offset="41.7%"></stop>
            <stop stop-color="#3D4651" offset="100%"></stop>
        </radialGradient>
        <linearGradient x1="40.33462%" y1="40.6763006%" x2="60.7083596%" y2="55.0549133%" id="linearGradient-6">
            <stop stop-color="#344351" offset="0%"></stop>
            <stop stop-color="#9697A0" offset="10%"></stop>
            <stop stop-color="#8B8C95" offset="18.1%"></stop>
            <stop stop-color="#787A83" offset="35.1%"></stop>
            <stop stop-color="#71747D" offset="47%"></stop>
            <stop stop-color="#777982" offset="59.1%"></stop>
            <stop stop-color="#87898F" offset="74.9%"></stop>
            <stop stop-color="#8E8F94" offset="80%"></stop>
            <stop stop-color="#3D3B42" offset="84.9%"></stop>
            <stop stop-color="#606E84" offset="90%"></stop>
        </linearGradient>
        <linearGradient x1="74.136314%" y1="89.045968%" x2="18.5029381%" y2="4.37796999%" id="linearGradient-7">
            <stop stop-color="#262B33" offset="27%"></stop>
            <stop stop-color="#74747E" offset="45%"></stop>
            <stop stop-color="#B0B0BC" offset="54%"></stop>
            <stop stop-color="#74747E" offset="73%"></stop>
        </linearGradient>
        <linearGradient x1="-1.74958249%" y1="55.3282043%" x2="97.9170936%" y2="48.1215475%" id="linearGradient-8">
            <stop stop-color="#606E84" offset="14%"></stop>
            <stop stop-color="#9899A5" offset="40%"></stop>
            <stop stop-color="#475768" offset="73%"></stop>
            <stop stop-color="#262B33" offset="92%"></stop>
        </linearGradient>
        <linearGradient x1="52.1559441%" y1="71.3939241%" x2="41.5517795%" y2="26.3025475%" id="linearGradient-9">
            <stop stop-color="#101215" stop-opacity="0.1" offset="0%"></stop>
            <stop stop-color="#101215" stop-opacity="0.7" offset="46%"></stop>
            <stop stop-color="#474951" offset="70%"></stop>
            <stop stop-color="#7B7D88" offset="91%"></stop>
        </linearGradient>
        <linearGradient x1="42.6281223%" y1="42.6158885%" x2="57.8382698%" y2="54.0125254%" id="linearGradient-10">
            <stop stop-color="#2C3952" offset="11.5%"></stop>
            <stop stop-color="#3D414E" offset="37.4%"></stop>
            <stop stop-color="#474A54" offset="55%"></stop>
            <stop stop-color="#4E5057" offset="75.4%"></stop>
            <stop stop-color="#323945" offset="89.2%"></stop>
            <stop stop-color="#143052" offset="100%"></stop>
        </linearGradient>
        <linearGradient x1="29.790026%" y1="69.5002733%" x2="58.0648946%" y2="23.5423464%" id="linearGradient-11">
            <stop stop-color="#6D7078" stop-opacity="0" offset="11.8%"></stop>
            <stop stop-color="#6D7078" stop-opacity="0.7" offset="20%"></stop>
            <stop stop-color="#35363A" offset="34%"></stop>
            <stop stop-color="#1D1F22" offset="37.4%"></stop>
            <stop stop-color="#101215" offset="40%"></stop>
            <stop stop-color="#16171A" offset="50%"></stop>
            <stop stop-color="#292A2E" offset="56%"></stop>
            <stop stop-color="#4B4D51" offset="68.8%"></stop>
            <stop stop-color="#63666B" offset="80.7%"></stop>
            <stop stop-color="#72757B" offset="91.5%"></stop>
            <stop stop-color="#777A80" offset="100%"></stop>
        </linearGradient>
        <linearGradient x1="-0.164118631%" y1="50.0043285%" x2="99.9573642%" y2="50.0043285%" id="linearGradient-12">
            <stop stop-color="#4A4D56" offset="0%"></stop>
            <stop stop-color="#29292D" offset="100%"></stop>
        </linearGradient>
        <linearGradient x1="-0.189811699%" y1="49.5838027%" x2="99.9358594%" y2="49.5838027%" id="linearGradient-13">
            <stop stop-color="#767880" offset="0%"></stop>
            <stop stop-color="#0C0A0B" offset="41%"></stop>
        </linearGradient>
        <linearGradient x1="31.7262767%" y1="89.0314465%" x2="67.0245243%" y2="8.6918239%" id="linearGradient-14">
            <stop stop-color="#858997" offset="0%"></stop>
            <stop stop-color="#244668" offset="23%"></stop>
            <stop stop-color="#1A3249" offset="28.2%"></stop>
            <stop stop-color="#040506" offset="40%"></stop>
            <stop stop-color="#313236" offset="46.4%"></stop>
            <stop stop-color="#65656E" offset="54.6%"></stop>
            <stop stop-color="#868691" offset="60.7%"></stop>
            <stop stop-color="#92929E" offset="64%"></stop>
        </linearGradient>
        <path d="M51.344,42.96 C54.608,43.632 57.168,44.96 59.024,46.944 C60.88,48.928 61.808,51.136 61.808,53.568 C61.808,56 61.08,58.208 59.624,60.192 C58.168,62.176 55.848,63.752 52.664,64.92 C49.48,66.088 47.088,66.672 45.488,66.672 C44.368,66.672 43.808,66.376 43.808,65.784 C43.808,65.192 44.176,64.848 44.912,64.752 C48.24,64.336 51.32,63.168 54.152,61.248 C56.984,59.328 58.4,56.848 58.4,53.808 C58.4,51.984 57.856,50.272 56.768,48.672 C55.68,47.072 53.776,45.92 51.056,45.216 C49.84,48.128 47.168,52.16 43.04,57.312 C43.264,57.888 43.504,58.368 43.76,58.752 C44.016,59.136 44.144,59.456 44.144,59.712 C44.144,59.968 43.976,60.24 43.64,60.528 C43.304,60.816 42.992,60.96 42.704,60.96 C42.128,60.96 41.6,60.512 41.12,59.616 C39.488,61.376 37.776,62.712 35.984,63.624 C34.192,64.536 32.608,64.992 31.232,64.992 C29.856,64.992 28.704,64.432 27.776,63.312 C26.848,62.192 26.384,60.672 26.384,58.752 C26.384,55.776 27.52,52.84 29.792,49.944 C32.064,47.048 35.248,44.912 39.344,43.536 C39.536,41.392 39.776,39.408 40.064,37.584 C35.968,38.064 33.504,38.304 32.672,38.304 C30.592,38.304 29.208,37.808 28.52,36.816 C27.832,35.824 27.488,35.072 27.488,34.56 C27.488,34.304 27.64,34.176 27.944,34.176 C28.248,34.176 28.768,34.44 29.504,34.968 C30.24,35.496 31.568,35.76 33.488,35.76 C34.416,35.76 35.36,35.712 36.32,35.616 L40.352,35.28 C40.704,33.072 40.944,31.728 41.072,31.248 C41.2,30.768 41.264,30.336 41.264,29.952 C41.264,29.568 41.112,29.168 40.808,28.752 C40.504,28.336 40,27.824 39.296,27.216 C39.072,27.024 38.96,26.8 38.96,26.544 C38.96,25.968 39.344,25.68 40.112,25.68 C40.4,25.68 41.256,26.056 42.68,26.808 C44.104,27.56 44.816,28.432 44.816,29.424 C44.816,29.936 44.632,30.504 44.264,31.128 C43.896,31.752 43.472,32.992 42.992,34.848 C46.288,34.304 48.824,33.592 50.6,32.712 C52.376,31.832 53.616,31.392 54.32,31.392 C55.024,31.392 55.608,31.576 56.072,31.944 C56.536,32.312 56.768,32.64 56.768,32.928 C56.768,33.44 56.168,33.92 54.968,34.368 C53.768,34.816 51.944,35.336 49.496,35.928 C47.048,36.52 44.736,36.96 42.56,37.248 C42.272,38.656 42.048,40.528 41.888,42.864 C43.264,42.64 44.48,42.528 45.536,42.528 C46.592,42.528 47.424,42.544 48.032,42.576 C47.872,42.32 47.672,42.024 47.432,41.688 C47.192,41.352 47.072,41.056 47.072,40.8 C47.072,40.544 47.144,40.336 47.288,40.176 C47.432,40.016 47.648,39.936 47.936,39.936 C48.224,39.936 48.808,40.264 49.688,40.92 C50.568,41.576 51.12,42.256 51.344,42.96 Z M48.272,44.736 C47.664,44.672 46.816,44.64 45.728,44.64 C44.64,44.64 43.328,44.816 41.792,45.168 C41.76,45.904 41.744,46.624 41.744,47.328 C41.744,50.048 41.952,52.512 42.368,54.72 C43.392,53.408 44.552,51.656 45.848,49.464 C47.144,47.272 47.952,45.696 48.272,44.736 Z M40.208,57.312 C39.504,55.072 39.152,52.192 39.152,48.672 C39.152,47.808 39.168,46.896 39.2,45.936 C36.128,47.152 33.744,48.928 32.048,51.264 C30.352,53.6 29.504,56.128 29.504,58.848 C29.504,59.776 29.592,60.408 29.768,60.744 C29.944,61.08 30.248,61.352 30.68,61.56 C31.112,61.768 31.6,61.872 32.144,61.872 C33.136,61.872 34.384,61.472 35.888,60.672 C37.392,59.872 38.832,58.752 40.208,57.312 Z M96.68,90.712 C96.68,91.416 96.696,92.024 96.728,92.536 C96.76,93.048 96.792,93.592 96.824,94.168 L100.136,94.648 L100.136,95.656 C99.336,96.072 98.448,96.44 97.472,96.76 C96.496,97.08 95.56,97.32 94.664,97.48 L93.464,97.48 C93.144,96.744 92.952,95.936 92.888,95.056 C92.824,94.176 92.776,93.208 92.744,92.152 L92.504,92.152 C92.376,92.792 92.128,93.44 91.76,94.096 C91.392,94.752 90.912,95.336 90.32,95.848 C89.728,96.36 89.032,96.776 88.232,97.096 C87.432,97.416 86.52,97.576 85.496,97.576 C83.544,97.576 81.952,96.984 80.72,95.8 C79.488,94.616 78.872,93.064 78.872,91.144 C78.872,89.672 79.168,88.464 79.76,87.52 C80.352,86.576 81.224,85.832 82.376,85.288 C83.528,84.744 84.952,84.352 86.648,84.112 C88.344,83.872 90.312,83.688 92.552,83.56 C92.68,82.184 92.72,80.944 92.672,79.84 C92.624,78.736 92.448,77.792 92.144,77.008 C91.84,76.224 91.392,75.616 90.8,75.184 C90.208,74.752 89.432,74.536 88.472,74.536 C88.024,74.536 87.52,74.56 86.96,74.608 C86.4,74.656 85.848,74.792 85.304,75.016 L83.048,80.776 L81.8,80.776 C81.48,79.816 81.2,78.824 80.96,77.8 C80.72,76.776 80.568,75.768 80.504,74.776 C81.72,74.04 83.072,73.464 84.56,73.048 C86.048,72.632 87.704,72.424 89.528,72.424 C91.16,72.424 92.464,72.656 93.44,73.12 C94.416,73.584 95.16,74.184 95.672,74.92 C96.184,75.656 96.52,76.472 96.68,77.368 C96.84,78.264 96.92,79.16 96.92,80.056 C96.92,81.976 96.88,83.824 96.8,85.6 C96.72,87.376 96.68,89.08 96.68,90.712 Z M87.416,94.6 C88.216,94.6 88.92,94.44 89.528,94.12 C90.136,93.8 90.648,93.416 91.064,92.968 C91.48,92.52 91.816,92.064 92.072,91.6 C92.328,91.136 92.504,90.744 92.6,90.424 L92.6,85.384 C90.744,85.384 89.224,85.48 88.04,85.672 C86.856,85.864 85.928,86.168 85.256,86.584 C84.584,87 84.12,87.52 83.864,88.144 C83.608,88.768 83.48,89.48 83.48,90.28 C83.48,91.656 83.832,92.72 84.536,93.472 C85.24,94.224 86.2,94.6 87.416,94.6 Z M95.624,62.488 C95.336,63.192 94.992,63.896 94.592,64.6 C94.192,65.304 93.72,65.928 93.176,66.472 C92.632,67.016 92.032,67.464 91.376,67.816 C90.72,68.168 89.992,68.344 89.192,68.344 C88.328,68.344 87.56,68.192 86.888,67.888 C86.216,67.584 85.608,67.168 85.064,66.64 C84.52,66.112 84.04,65.488 83.624,64.768 C83.208,64.048 82.856,63.256 82.568,62.392 L83.912,61.768 C84.136,62.184 84.448,62.576 84.848,62.944 C85.248,63.312 85.688,63.64 86.168,63.928 C86.648,64.216 87.16,64.448 87.704,64.624 C88.248,64.8 88.76,64.888 89.24,64.888 C91.416,64.952 93.16,63.976 94.472,61.96 L95.624,62.488 Z" id="path-15"></path>
        <filter x="-19.2%" y="-13.4%" width="139.9%" height="133.4%" filterUnits="objectBoundingBox" id="filter-16">
            <feOffset dx="0" dy="4" in="SourceAlpha" result="shadowOffsetOuter1"></feOffset>
            <feGaussianBlur stdDeviation="4" in="shadowOffsetOuter1" result="shadowBlurOuter1"></feGaussianBlur>
            <feComposite in="shadowBlurOuter1" in2="SourceAlpha" operator="out" result="shadowBlurOuter1"></feComposite>
            <feColorMatrix values="0 0 0 0 0   0 0 0 0 0   0 0 0 0 0  0 0 0 0.25 0" type="matrix" in="shadowBlurOuter1"></feColorMatrix>
        </filter>
    </defs>
    <g id="Frame" stroke="none" fill="none" xlink:href="#path-1">
        <g id="Group" stroke-width="1" fill-rule="evenodd">
            <g id="Background" transform="translate(13.8, 13.8)">
                <path d="M21.9,7.10542736e-15 L78.4,7.10542736e-15 C90.5,7.10542736e-15 100.3,9.8 100.3,21.9 L100.3,78.4 C100.3,90.5 90.5,100.3 78.4,100.3 L21.9,100.3 C9.8,100.3 7.10542736e-15,90.5 7.10542736e-15,78.4 L7.10542736e-15,21.9 C7.10542736e-15,9.8 9.8,7.10542736e-15 21.9,7.10542736e-15 Z" id="Path" fill="url(#linearGradient-2)"></path>
                <path d="M76.7,5.4 L23.6,5.4 C13.5,5.4 5.3,13.6 5.3,23.7 L5.3,76.8 C5.3,86.9 13.5,95.1 23.6,95.1 L76.7,95.1 C86.8,95.1 95,86.9 95,76.8 L95,23.6 C95,13.5 86.8,5.4 76.7,5.4 L76.7,5.4 Z M93.5,77 C93.5,86.2 86.1,93.6 76.9,93.6 L23.4,93.6 C14.3,93.6 6.8,86.2 6.8,77 L6.8,23.4 C6.8,14.2 14.2,6.8 23.4,6.8 L77,6.8 C86.1,6.8 93.6,14.2 93.6,23.4 L93.6,77 L93.5,77 Z" id="Shape" fill="#FFFFFF" fill-rule="nonzero"></path>
                <path d="M50.3,9 C27.7,9 9.3,27.4 9.3,50 C9.3,72.6 27.7,91 50.3,91 C73,91 91.3,72.6 91.3,50 C91.3,27.4 72.9,9 50.3,9 L50.3,9 Z M50.3,90.4 C28,90.4 9.9,72.3 9.9,50 C9.9,27.7 28,9.6 50.3,9.6 C72.6,9.6 90.7,27.7 90.7,50 C90.7,72.3 72.6,90.4 50.3,90.4 Z" id="Shape" fill="#69C5F3" fill-rule="nonzero"></path>
                <path d="M50.3,17.4 C32.2,17.4 17.6,32 17.6,50.1 C17.6,68.2 32.2,82.7 50.3,82.7 C68.4,82.7 83,68.1 83,50 C83,31.9 68.3,17.4 50.3,17.4 L50.3,17.4 Z M50.3,82 C32.6,82 18.3,67.7 18.3,50 C18.3,32.3 32.6,18 50.3,18 C68,18 82.3,32.3 82.3,50 C82.3,67.7 67.9,82 50.3,82 Z" id="Shape" fill="#68C5F4" fill-rule="nonzero"></path>
            </g>
            <g id="Hammer" transform="translate(32.787, 5.5)">
                <path d="M26.0130065,108.7 L68.8130065,18.8 L58.0130065,13.7 L13.4130065,107.2 C13.4130065,107.2 14.8130065,107.9 16.6130065,108.7 L26.0130065,108.7 Z" id="Path" fill="url(#linearGradient-3)"></path>
                <path d="M51.3130065,8.3 L71.3130065,17.8 L71.3130065,46.5 C64.4130065,43.2 18.2130065,21.2 18.2130065,21.2 C18.2130065,21.2 21.4130065,14.5 24.4130065,8.3 L51.3130065,8.3 Z" id="Path" fill="url(#radialGradient-4)"></path>
                <path d="M1.71300648,104.7 C1.41300648,105.3 0.913006479,106 1.01300648,107.1 C1.11300648,111.2 7.81300648,115 11.7130065,115 C14.4130065,115 15.3130065,113.9 16.3130065,111.9 C17.3130065,109.9 2.81300648,102.3 1.71300648,104.7 L1.71300648,104.7 Z" id="Path" fill="url(#radialGradient-5)"></path>
                <path d="M47.8130065,19.6 C47.8130065,19.6 58.1130065,22.1 58.9130065,22.8 C59.7130065,23.5 57.6130065,27.5 57.2130065,28.1 C53.9130065,32.1 43.6130065,54.2 43.6130065,54.2 L34.1130065,48.8 C34.1130065,48.8 42.6130065,33 45.6130065,27.4 C47.5130065,23.6 47.8130065,19.6 47.8130065,19.6 Z" id="Path" fill="url(#linearGradient-6)"></path>
                <path d="M71.6130065,14.4 C73.4130065,15.7 75.8130065,15.4 77.7130065,15.1 C79.0130065,14.9 77.0130065,16.8 74.8130065,21.2 C72.6130065,25.6 72.7130065,25.9 72.4130065,25.6 C72.1130065,25.3 62.2130065,19.7 62.5130065,19.2 C62.9130065,18.7 64.5130065,7.8 65.3130065,8.1 C68.2130065,8.8 68.7130065,12.3 71.6130065,14.4 L71.6130065,14.4 Z" id="Path" fill="url(#linearGradient-7)"></path>
                <path d="M56.2130065,26.7 C56.9130065,25.6 60.1130065,18.8 65.2130065,18.8 C67.5130065,18.8 71.9130065,24.6 72.3130065,25.4 C72.6130065,26.1 71.6130065,28.9 71.1130065,27.6 C70.5130065,26.1 68.0130065,22.9 65.3130065,22.9 C62.6130065,22.9 58.9130065,26 58.0130065,27.1 C57.1130065,28.1 55.5130065,27.8 56.2130065,26.7 L56.2130065,26.7 Z" id="Path" fill="url(#linearGradient-8)"></path>
                <path d="M56.0130065,26.3 C56.5130065,25.5 58.8130065,22 59.9130065,20.9 C61.0130065,19.8 63.8130065,16.9 66.2130065,16.5 C68.6130065,16.1 71.1130065,21 70.3130065,22 C69.7130065,22.7 68.7130065,21.9 67.5130065,20.9 C66.3130065,20 65.5130065,18.2 61.7130065,21.1 C60.4130065,22.1 59.1130065,22.9 56.1130065,27.2 C55.3130065,28.3 55.5130065,27.1 56.0130065,26.3 L56.0130065,26.3 Z" id="Path" fill="url(#linearGradient-9)"></path>
                <path d="M43.6130065,55.5 C44.0130065,54.7 44.5130065,53.5 43.4130065,52.6 C42.2130065,51.7 36.6130065,48.7 35.6130065,48.5 C34.6130065,48.3 33.8130065,48.5 33.4130065,49.2 C33.0130065,49.9 2.31300648,102.5 1.71300648,104 C1.11300648,105.5 1.01300648,106.6 1.91300648,106.9 C2.81300648,107.2 13.1130065,112.1 14.1130065,113.2 C15.1130065,114.3 15.6130065,113.1 16.0130065,112.5 C17.9130065,110.1 43.1130065,56.3 43.6130065,55.5 Z" id="Path" fill="url(#linearGradient-10)"></path>
                <path d="M56.7130065,26.1 C57.2130065,25.4 58.4130065,23.4 59.9130065,21.6 C60.9130065,20.4 66.3130065,17.8 67.5130065,13.6 C68.2130065,11.3 67.1130065,9 65.6130065,8 C60.5130065,4.9 51.7130065,3.55271368e-15 38.8130065,3.55271368e-15 C30.1130065,3.55271368e-15 26.4130065,2.9 26.4130065,2.9 L30.8130065,2.9 L46.1130065,8.9 L48.0130065,16.9 C48.0130065,16.9 48.2130065,19.6 47.3130065,22.7 C46.7130065,25.2 46.5130065,26.7 45.6130065,29.2 C46.3130065,29.5 47.9130065,28.4 49.7130065,28.9 C51.3130065,29.3 52.3130065,31.5 53.4130065,30.2 C55.3130065,27.7 55.9130065,27.2 56.7130065,26.1 L56.7130065,26.1 Z" id="Path" fill="url(#linearGradient-11)"></path>
                <path d="M47.7130065,19.9 C46.9130065,12.5 45.1130065,5.5 26.3130065,5.6 C27.5130065,4.4 30.4130065,3.2 30.4130065,3.2 L26.3130065,2.9 C26.3130065,2.9 26.9130065,2.4 28.1130065,2.3 C39.1130065,1.4 48.9130065,3.7 48.2130065,18 C48.1130065,20.3 47.9130065,21.3 47.7130065,19.9 Z" id="Path" fill="url(#linearGradient-12)"></path>
                <path d="M26.3130065,5.6 C27.6130065,5.1 29.4130065,4.8 32.8130065,5 C37.0130065,5.2 42.3130065,6.8 44.5130065,8.8 C45.6130065,9.8 45.5130065,9 44.3130065,7.7 C41.2130065,4.1 36.5130065,3.3 30.4130065,3.2 C29.7130065,3.1 27.4130065,4.4 26.3130065,5.6 L26.3130065,5.6 Z" id="Path" fill="url(#linearGradient-13)"></path>
                <path d="M77.9130065,15.1 L83.4130065,17.9 C83.4130065,17.9 81.3130065,20.7 79.6130065,23.9 C77.8130065,27.3 76.6130065,31 76.6130065,31 L71.3130065,27.8 C71.3130065,27.8 72.6130065,24.2 74.5130065,20.7 C76.0130065,17.8 77.9130065,15.1 77.9130065,15.1 L77.9130065,15.1 Z" id="Path" fill="url(#linearGradient-14)"></path>
                <path d="M83.4130065,17.9 C83.8130065,18.1 82.5130065,21.2 80.6130065,24.8 C78.7130065,28.4 76.9130065,31.2 76.6130065,31 C76.2130065,30.8 77.5130065,27.7 79.4130065,24.1 C81.2130065,20.5 83.0130065,17.7 83.4130065,17.9 L83.4130065,17.9 Z" id="Path" fill="#BFC0D0"></path>
            </g>
        </g>
        <g id="Combined-Shape" fill-rule="nonzero">
            <use fill="black" fill-opacity="1" filter="url(#filter-16)" xlink:href="#path-15"></use>
            <use fill-opacity="0.747797947" fill="#FFFFFF" xlink:href="#path-15"></use>
        </g>
    </g>
</svg>